<svg id="Layer_1" data-name="Layer 1" xmlns="http://www.w3.org/2000/svg" xmlns:xlink="http://www.w3.org/1999/xlink" viewBox="0 0 1137 39"><defs><style>.cls-1{fill:#fff;}.cls-2{fill:#ed1c24;}.cls-3{fill:url(#linear-gradient);}.cls-4{fill:url(#linear-gradient-2);}</style><linearGradient id="linear-gradient" y1="19.5" x2="349" y2="19.5" gradientUnits="userSpaceOnUse"><stop offset="0" stop-color="#e34b27"/><stop offset="0.44" stop-color="#e74f26" stop-opacity="0.95"/><stop offset="0.54" stop-color="#e95126" stop-opacity="0.9"/><stop offset="0.7" stop-color="#e85026" stop-opacity="0.85"/><stop offset="0.96" stop-color="#f15a24" stop-opacity="0.7"/></linearGradient><linearGradient id="linear-gradient-2" y1="19.5" x2="349" y2="19.5" gradientUnits="userSpaceOnUse"><stop offset="0.17"/><stop offset="0.31" stop-color="#ea5824"/><stop offset="0.74" stop-color="#f15a24"/></linearGradient></defs><title>Artboard 1</title><rect class="cls-1" x="1" y="1" width="1135" height="37" rx="11" ry="11"/><path class="cls-2" d="M1125,2a10,10,0,0,1,10,10V27a10,10,0,0,1-10,10H12A10,10,0,0,1,2,27V12A10,10,0,0,1,12,2H1125m0-2H12A12,12,0,0,0,0,12V27A12,12,0,0,0,12,39H1125a12,12,0,0,0,12-12V12a12,12,0,0,0-12-12Z"/><rect class="cls-3" width="349" height="39" rx="12" ry="12"/><path class="cls-4" d="M337,1a11,11,0,0,1,11,11V27a11,11,0,0,1-11,11H12A11,11,0,0,1,1,27V12A11,11,0,0,1,12,1H337m0-1H12A12,12,0,0,0,0,12V27A12,12,0,0,0,12,39H337a12,12,0,0,0,12-12V12A12,12,0,0,0,337,0Z"/></svg>